<svg id="Layer_2" data-name="Layer 2" xmlns="http://www.w3.org/2000/svg" xmlns:xlink="http://www.w3.org/1999/xlink" width="171.9" height="80.085" viewBox="0 0 171.9 80.085">
  <defs>
    <clipPath id="clip-path">
      <rect id="Rectangle_1" data-name="Rectangle 1" width="23.271" height="21.552" fill="none"/>
    </clipPath>
    <clipPath id="clip-path-2">
      <rect id="Rectangle_2" data-name="Rectangle 2" width="11.833" height="11.58" fill="none"/>
    </clipPath>
    <clipPath id="clip-path-3">
      <rect id="Rectangle_3" data-name="Rectangle 3" width="26.869" height="35.049" fill="none"/>
    </clipPath>
    <clipPath id="clip-path-4">
      <rect id="Rectangle_4" data-name="Rectangle 4" width="28.091" height="28.549" transform="translate(0 0)" fill="none"/>
    </clipPath>
    <clipPath id="clip-path-5">
      <rect id="Rectangle_5" data-name="Rectangle 5" width="27.531" height="27.839" fill="none"/>
    </clipPath>
    <clipPath id="clip-path-6">
      <rect id="Rectangle_6" data-name="Rectangle 6" width="30.016" height="38.047" fill="none"/>
    </clipPath>
    <clipPath id="clip-path-7">
      <rect id="Rectangle_7" data-name="Rectangle 7" width="9.451" height="38.149" fill="none"/>
    </clipPath>
    <clipPath id="clip-path-8">
      <rect id="Rectangle_8" data-name="Rectangle 8" width="18.033" height="38.299" transform="translate(0 0)" fill="none"/>
    </clipPath>
    <clipPath id="clip-path-9">
      <rect id="Rectangle_9" data-name="Rectangle 9" width="31.294" height="37.794" transform="translate(0 0)" fill="none"/>
    </clipPath>
  </defs>
  <g id="Layer_1" data-name="Layer 1">
    <g id="surface1">
      <path id="Path_1" data-name="Path 1" d="M187.5,10.75c-3.944,3.463-8.212,7.3-12.133,10.76h0a1.01,1.01,0,0,1,.11.181.909.909,0,0,1,.095.2,6.311,6.311,0,0,1,.513,2.043c4.252-3.763,8.867-7.889,13.119-11.651A5.83,5.83,0,0,1,187.5,10.75Z" transform="translate(-37.028 -2.27)" fill="#38f094"/>
      <path id="Path_2" data-name="Path 2" d="M149.879,10.77a5.585,5.585,0,0,1-.789,2.414c3.566,3.155,7.494,6.666,11.044,9.813a5.522,5.522,0,0,1,1.041-2.154C157.562,17.609,153.539,14.012,149.879,10.77Z" transform="translate(-31.479 -2.274)" fill="#38f094"/>
      <g id="Group_1" data-name="Group 1" transform="translate(85.804 9.214)" clip-path="url(#clip-path)">
        <path id="Path_3" data-name="Path 3" d="M117.642,23.371a5.845,5.845,0,0,0-3.282-1.183c-3.1-.174-5.341,2.643-5.522,5.522-.166,3.155,2.643,5.356,5.522,5.522s5.159-2.43,5.467-5.167a1.239,1.239,0,0,0,0-.347,1.152,1.152,0,0,0,0-.339,6.027,6.027,0,0,0-.678-2.256c4.173-3.723,8.528-7.565,12.693-11.249a5.23,5.23,0,0,1-.986-2.193C126.516,15.514,122,19.529,117.642,23.371Zm-6.477,4.339c-.229-4.134,6.169-4.11,6.39,0a3.195,3.195,0,0,1-6.39,0Z" transform="translate(-108.783 -11.68)" fill="#38f094"/>
      </g>
      <path id="Path_4" data-name="Path 4" d="M147.374,8.464V8.33a1.51,1.51,0,0,0,0-.174,5.522,5.522,0,0,0-10.894.986,5.2,5.2,0,0,0,.087,1.065,5.088,5.088,0,0,0,.994,2.2,5.751,5.751,0,0,0,4.678,2.24,5.372,5.372,0,0,0,4.457-2.737,5.522,5.522,0,0,0,.726-3.447Zm-5.183,3.881a3.21,3.21,0,1,1,2.9-3.7,3.266,3.266,0,0,1-2.9,3.7Z" transform="translate(-28.816 -0.82)" fill="#38f094"/>
      <path id="Path_5" data-name="Path 5" d="M173,23.659a1.01,1.01,0,0,0-.11-.181h0a5.585,5.585,0,0,0-7.423-1.933,4.82,4.82,0,0,0-1.53,1.27,5.333,5.333,0,0,0-1.049,2.1,5.845,5.845,0,0,0,.592,4.22,5.561,5.561,0,0,0,7.187,2.09,5.317,5.317,0,0,0,2.942-5.333,6.082,6.082,0,0,0-.513-2.043.907.907,0,0,0-.095-.189Zm-3.29,5.475a3.2,3.2,0,1,1,1.65-3.251A3.2,3.2,0,0,1,169.711,29.134Z" transform="translate(-34.359 -4.403)" fill="#38f094"/>
      <g id="Group_2" data-name="Group 2" transform="translate(148.518)" clip-path="url(#clip-path-2)">
        <path id="Path_6" data-name="Path 6" d="M200.239,5.26A5.522,5.522,0,0,0,194.945,0a.789.789,0,0,0-.2,0,.686.686,0,0,0-.174,0,5.6,5.6,0,0,0-5.309,5.254,5.033,5.033,0,0,0,.986,3.424,5.8,5.8,0,0,0,1.72,1.578A5.451,5.451,0,0,0,200.239,5.3Zm-5.064,3.416c-2.051.4-3.668-1.578-3.613-3.432a3.2,3.2,0,0,1,6.382,0,3.274,3.274,0,0,1-2.769,3.432Z" transform="translate(-188.477 0.002)" fill="#38f094"/>
      </g>
      <g id="Group_3" data-name="Group 3" transform="translate(0 34.363)" clip-path="url(#clip-path-3)">
        <path id="Path_7" data-name="Path 7" d="M26.869-17.1H9.143V-44.43H0V-9.381H26.869Z" transform="translate(0 44.43)" fill="#38f094"/>
      </g>
      <g id="Group_4" data-name="Group 4" transform="translate(26.009 41.581)" clip-path="url(#clip-path-4)">
        <path id="Path_8" data-name="Path 8" d="M28.091-22.275c0-7.005-4.575-13.915-13.616-13.915S0-29.729,0-21.841c0,9.577,6.2,14.2,13.971,14.2,6.958,0,12.062-3.455,13.639-9.6H18.593c-.355,2.083-1.933,3.4-4.52,3.4s-4.607-1.27-5.033-5.79H27.933a24.265,24.265,0,0,0,.158-2.643ZM14.018-30c2.438,0,4.015,1.578,4.52,4.78H9.348C9.955-28.57,11.636-30,14.018-30Z" transform="translate(0 36.19)" fill="#38f094"/>
      </g>
      <g id="Group_5" data-name="Group 5" transform="translate(55.015 41.573)" clip-path="url(#clip-path-5)">
        <path id="Path_9" data-name="Path 9" d="M27.279-27.973c-.71-4.733-4.015-7.368-9.6-7.368a11.3,11.3,0,0,0-6.1,1.578L9.143-30.34v-4.22H0v27.1H9.143v-12.8c0-6.145,1.98-8.835,4.773-8.835s4.173,1.522,4.37,4.118c.1,1.365.1,2.84.1,3.7V-7.463h9.143V-22.806a35.5,35.5,0,0,0-.252-5.167Z" transform="translate(0 35.302)" fill="#38f094"/>
      </g>
      <g id="Group_6" data-name="Group 6" transform="translate(83.154 32.083)" clip-path="url(#clip-path-6)">
        <path id="Path_10" data-name="Path 10" d="M30.016-48.23H20.873v13.71l-1.775-2.9a14.405,14.405,0,0,0-6.248-1.317C5.893-38.732,0-33.5,0-23.846c0,8.023,4.567,13.663,11.935,13.663,2.745,0,5.388-.56,6.91-1.672l2.027-3.006v3.968h9.143ZM15.083-16.384c-3.195,0-5.735-2.84-5.735-7.889,0-5.522,2.438-8.236,6-8.236,2.737,0,5.522,1.83,5.522,7.265V-24.1C20.873-18.411,18.444-16.384,15.083-16.384Z" transform="translate(0 48.23)" fill="#38f094"/>
      </g>
      <g id="Group_7" data-name="Group 7" transform="translate(115.465 31.262)" clip-path="url(#clip-path-7)">
        <path id="Path_11" data-name="Path 11" d="M4.733-48.36C1.885-48.36,0-46.632,0-43.9s1.877,4.5,4.733,4.5,4.733-1.72,4.733-4.473S7.565-48.36,4.733-48.36ZM9.3-10.211V-37.34H.15v27.129Z" transform="translate(0 48.36)" fill="#38f094"/>
      </g>
      <g id="Group_8" data-name="Group 8" transform="translate(125.421 31.113)" clip-path="url(#clip-path-8)">
        <path id="Path_12" data-name="Path 12" d="M12.093-39.43c.252-2.367,2.643-3.353,5.94-2.793v-5.885a11.691,11.691,0,0,0-3.045-.4c-8.386,0-11.636,3.155-12.046,8.228-.047.915-.047,2.13-.047,2.942v.205H0v5.656H2.9v21.236h9.143V-31.479H17.56v-5.688H12.038v-.205C12.038-38.026,12.038-38.689,12.093-39.43Z" transform="translate(0 48.542)" fill="#38f094"/>
      </g>
      <g id="Group_9" data-name="Group 9" transform="translate(140.606 42.291)" clip-path="url(#clip-path-9)">
        <path id="Path_13" data-name="Path 13" d="M31.294-47.91H21.3L15.777-28.047,10.16-47.91H0L11.225-19.582l-.355.789c-.86,1.925-2.367,2.643-4.473,2.643a18.933,18.933,0,0,1-2.453-.11v5.893a24.076,24.076,0,0,0,3.826.252c6.429,0,9.4-2.083,12.8-10.665Z" transform="translate(0 47.91)" fill="#38f094"/>
      </g>
    </g>
  </g>
</svg>

